<mxfile host="app.diagrams.net" modified="2023-12-15T11:48:32.962Z" agent="Mozilla/5.0 (Windows NT 10.0; Win64; x64) AppleWebKit/537.36 (KHTML, like Gecko) Chrome/120.0.0.0 Safari/537.36" etag="Y7rAFOtRuquSga7dy6LG" version="22.1.9" type="github">
  <diagram name="Сторінка-1" id="SJdJJS2_xC9z2sIt00Z5">
    <mxGraphModel dx="1820" dy="996" grid="0" gridSize="10" guides="1" tooltips="1" connect="1" arrows="1" fold="1" page="1" pageScale="1" pageWidth="827" pageHeight="1169" math="0" shadow="0">
      <root>
        <mxCell id="0" />
        <mxCell id="1" parent="0" />
        <mxCell id="DKxoDczUzYRrsLxdtW0W-1" style="edgeStyle=orthogonalEdgeStyle;rounded=0;orthogonalLoop=1;jettySize=auto;html=1;exitX=0.5;exitY=1;exitDx=0;exitDy=0;entryX=0.5;entryY=0;entryDx=0;entryDy=0;" edge="1" parent="1" source="DKxoDczUzYRrsLxdtW0W-2" target="DKxoDczUzYRrsLxdtW0W-5">
          <mxGeometry relative="1" as="geometry" />
        </mxCell>
        <mxCell id="DKxoDczUzYRrsLxdtW0W-2" value="&lt;b&gt;&lt;font style=&quot;font-size: 14px;&quot;&gt;Start&lt;/font&gt;&lt;/b&gt;" style="ellipse;whiteSpace=wrap;html=1;fillColor=#fff2cc;strokeColor=#d6b656;" vertex="1" parent="1">
          <mxGeometry x="365" y="20" width="140" height="60" as="geometry" />
        </mxCell>
        <mxCell id="DKxoDczUzYRrsLxdtW0W-4" style="edgeStyle=orthogonalEdgeStyle;rounded=0;orthogonalLoop=1;jettySize=auto;html=1;exitX=0.5;exitY=1;exitDx=0;exitDy=0;entryX=0.5;entryY=0;entryDx=0;entryDy=0;" edge="1" parent="1" source="DKxoDczUzYRrsLxdtW0W-5" target="DKxoDczUzYRrsLxdtW0W-7">
          <mxGeometry relative="1" as="geometry" />
        </mxCell>
        <mxCell id="DKxoDczUzYRrsLxdtW0W-5" value="&lt;b&gt;Output&amp;nbsp;&quot;Введіть довжину ребра (см)&quot;&lt;/b&gt;" style="shape=parallelogram;perimeter=parallelogramPerimeter;whiteSpace=wrap;html=1;fixedSize=1;fillColor=#dae8fc;strokeColor=#6c8ebf;" vertex="1" parent="1">
          <mxGeometry x="343.5" y="110" width="183" height="60" as="geometry" />
        </mxCell>
        <mxCell id="DKxoDczUzYRrsLxdtW0W-6" style="edgeStyle=orthogonalEdgeStyle;rounded=0;orthogonalLoop=1;jettySize=auto;html=1;exitX=0.5;exitY=1;exitDx=0;exitDy=0;entryX=0.5;entryY=0;entryDx=0;entryDy=0;" edge="1" parent="1" source="DKxoDczUzYRrsLxdtW0W-7">
          <mxGeometry relative="1" as="geometry">
            <mxPoint x="435" y="270" as="targetPoint" />
          </mxGeometry>
        </mxCell>
        <mxCell id="DKxoDczUzYRrsLxdtW0W-7" value="&lt;b&gt;Input c&lt;/b&gt;" style="shape=parallelogram;perimeter=parallelogramPerimeter;whiteSpace=wrap;html=1;fixedSize=1;fillColor=#dae8fc;strokeColor=#6c8ebf;" vertex="1" parent="1">
          <mxGeometry x="343.5" y="190" width="183" height="60" as="geometry" />
        </mxCell>
        <mxCell id="DKxoDczUzYRrsLxdtW0W-8" style="edgeStyle=orthogonalEdgeStyle;rounded=0;orthogonalLoop=1;jettySize=auto;html=1;exitX=0.5;exitY=1;exitDx=0;exitDy=0;entryX=0.5;entryY=0;entryDx=0;entryDy=0;" edge="1" parent="1" target="DKxoDczUzYRrsLxdtW0W-11">
          <mxGeometry relative="1" as="geometry">
            <mxPoint x="435" y="330" as="sourcePoint" />
          </mxGeometry>
        </mxCell>
        <mxCell id="DKxoDczUzYRrsLxdtW0W-10" style="edgeStyle=orthogonalEdgeStyle;rounded=0;orthogonalLoop=1;jettySize=auto;html=1;exitX=0.5;exitY=1;exitDx=0;exitDy=0;entryX=0.5;entryY=0;entryDx=0;entryDy=0;" edge="1" parent="1" source="DKxoDczUzYRrsLxdtW0W-11" target="DKxoDczUzYRrsLxdtW0W-12">
          <mxGeometry relative="1" as="geometry" />
        </mxCell>
        <mxCell id="DKxoDczUzYRrsLxdtW0W-11" value="&lt;b&gt;&amp;nbsp;Output&amp;nbsp;&quot;Об&#39;єм куба: &quot;, V, &quot; куб. см&quot;&lt;/b&gt;" style="shape=parallelogram;perimeter=parallelogramPerimeter;whiteSpace=wrap;html=1;fixedSize=1;fillColor=#dae8fc;strokeColor=#6c8ebf;" vertex="1" parent="1">
          <mxGeometry x="343.5" y="350" width="183" height="60" as="geometry" />
        </mxCell>
        <mxCell id="DKxoDczUzYRrsLxdtW0W-12" value="&lt;b&gt;Output&amp;nbsp;&quot;Введіть a та b - довжини основ трапеції&quot;&lt;/b&gt;" style="shape=parallelogram;perimeter=parallelogramPerimeter;whiteSpace=wrap;html=1;fixedSize=1;fillColor=#dae8fc;strokeColor=#6c8ebf;" vertex="1" parent="1">
          <mxGeometry x="343.5" y="430" width="183" height="60" as="geometry" />
        </mxCell>
        <mxCell id="DKxoDczUzYRrsLxdtW0W-13" style="edgeStyle=orthogonalEdgeStyle;rounded=0;orthogonalLoop=1;jettySize=auto;html=1;exitX=0.5;exitY=1;exitDx=0;exitDy=0;entryX=0.5;entryY=0;entryDx=0;entryDy=0;" edge="1" parent="1">
          <mxGeometry relative="1" as="geometry">
            <mxPoint x="435" y="490" as="sourcePoint" />
            <mxPoint x="435.0000000000002" y="510" as="targetPoint" />
          </mxGeometry>
        </mxCell>
        <mxCell id="DKxoDczUzYRrsLxdtW0W-39" value="&lt;b&gt;V = pow(c, 3)&lt;/b&gt;" style="rounded=0;whiteSpace=wrap;html=1;fillColor=#d5e8d4;strokeColor=#82b366;" vertex="1" parent="1">
          <mxGeometry x="348.75" y="270" width="172.5" height="60" as="geometry" />
        </mxCell>
        <mxCell id="DKxoDczUzYRrsLxdtW0W-48" style="edgeStyle=orthogonalEdgeStyle;rounded=0;orthogonalLoop=1;jettySize=auto;html=1;exitX=0.5;exitY=1;exitDx=0;exitDy=0;entryX=0.5;entryY=0;entryDx=0;entryDy=0;" edge="1" parent="1" source="DKxoDczUzYRrsLxdtW0W-40" target="DKxoDczUzYRrsLxdtW0W-41">
          <mxGeometry relative="1" as="geometry" />
        </mxCell>
        <mxCell id="DKxoDczUzYRrsLxdtW0W-40" value="&lt;b&gt;Input a, b&lt;/b&gt;" style="shape=parallelogram;perimeter=parallelogramPerimeter;whiteSpace=wrap;html=1;fixedSize=1;fillColor=#dae8fc;strokeColor=#6c8ebf;" vertex="1" parent="1">
          <mxGeometry x="343.5" y="510" width="183" height="60" as="geometry" />
        </mxCell>
        <mxCell id="DKxoDczUzYRrsLxdtW0W-49" style="edgeStyle=orthogonalEdgeStyle;rounded=0;orthogonalLoop=1;jettySize=auto;html=1;exitX=0.5;exitY=1;exitDx=0;exitDy=0;" edge="1" parent="1" source="DKxoDczUzYRrsLxdtW0W-41" target="DKxoDczUzYRrsLxdtW0W-42">
          <mxGeometry relative="1" as="geometry" />
        </mxCell>
        <mxCell id="DKxoDczUzYRrsLxdtW0W-41" value="&lt;b&gt;Output&amp;nbsp;&quot;Введіть h - довжину висоти трапеції&quot;&lt;/b&gt;" style="shape=parallelogram;perimeter=parallelogramPerimeter;whiteSpace=wrap;html=1;fixedSize=1;fillColor=#dae8fc;strokeColor=#6c8ebf;" vertex="1" parent="1">
          <mxGeometry x="343.5" y="590" width="183" height="60" as="geometry" />
        </mxCell>
        <mxCell id="DKxoDczUzYRrsLxdtW0W-50" style="edgeStyle=orthogonalEdgeStyle;rounded=0;orthogonalLoop=1;jettySize=auto;html=1;exitX=0.5;exitY=1;exitDx=0;exitDy=0;entryX=0.5;entryY=0;entryDx=0;entryDy=0;" edge="1" parent="1" source="DKxoDczUzYRrsLxdtW0W-42" target="DKxoDczUzYRrsLxdtW0W-44">
          <mxGeometry relative="1" as="geometry" />
        </mxCell>
        <mxCell id="DKxoDczUzYRrsLxdtW0W-42" value="&lt;b&gt;Input h&lt;/b&gt;" style="shape=parallelogram;perimeter=parallelogramPerimeter;whiteSpace=wrap;html=1;fixedSize=1;fillColor=#dae8fc;strokeColor=#6c8ebf;" vertex="1" parent="1">
          <mxGeometry x="343.5" y="670" width="183" height="60" as="geometry" />
        </mxCell>
        <mxCell id="DKxoDczUzYRrsLxdtW0W-44" value="&lt;b&gt;S2 = ((a + b) / 2) * h&lt;/b&gt;" style="rounded=0;whiteSpace=wrap;html=1;fillColor=#d5e8d4;strokeColor=#82b366;" vertex="1" parent="1">
          <mxGeometry x="348.75" y="750" width="172.5" height="60" as="geometry" />
        </mxCell>
        <mxCell id="DKxoDczUzYRrsLxdtW0W-52" style="edgeStyle=orthogonalEdgeStyle;rounded=0;orthogonalLoop=1;jettySize=auto;html=1;exitX=0.5;exitY=1;exitDx=0;exitDy=0;entryX=0.5;entryY=0;entryDx=0;entryDy=0;" edge="1" parent="1" source="DKxoDczUzYRrsLxdtW0W-46" target="DKxoDczUzYRrsLxdtW0W-47">
          <mxGeometry relative="1" as="geometry" />
        </mxCell>
        <mxCell id="DKxoDczUzYRrsLxdtW0W-46" value="&lt;b&gt;Output&amp;nbsp;&quot;Площа трапеції: &quot;, S2, &quot; кв. см&quot;&lt;/b&gt;" style="shape=parallelogram;perimeter=parallelogramPerimeter;whiteSpace=wrap;html=1;fixedSize=1;fillColor=#dae8fc;strokeColor=#6c8ebf;" vertex="1" parent="1">
          <mxGeometry x="338.25" y="830" width="183" height="60" as="geometry" />
        </mxCell>
        <mxCell id="DKxoDczUzYRrsLxdtW0W-47" value="&lt;b&gt;&lt;font style=&quot;font-size: 14px;&quot;&gt;Finish&lt;/font&gt;&lt;/b&gt;" style="ellipse;whiteSpace=wrap;html=1;fillColor=#fff2cc;strokeColor=#d6b656;" vertex="1" parent="1">
          <mxGeometry x="359.75" y="920" width="140" height="60" as="geometry" />
        </mxCell>
        <mxCell id="DKxoDczUzYRrsLxdtW0W-51" style="edgeStyle=orthogonalEdgeStyle;rounded=0;orthogonalLoop=1;jettySize=auto;html=1;exitX=0.5;exitY=1;exitDx=0;exitDy=0;entryX=0.546;entryY=-0.016;entryDx=0;entryDy=0;entryPerimeter=0;" edge="1" parent="1" source="DKxoDczUzYRrsLxdtW0W-44" target="DKxoDczUzYRrsLxdtW0W-46">
          <mxGeometry relative="1" as="geometry" />
        </mxCell>
      </root>
    </mxGraphModel>
  </diagram>
</mxfile>
